<svg width="862" height="135" viewBox="0 0 862 135" fill="none" xmlns="http://www.w3.org/2000/svg">
<path d="M857.115 101.62V90.2227H861.33V87.062H837.002C828.19 73.5573 817.272 62.3513 805.3 62.3513C793.327 62.3513 782.409 73.4616 773.597 87.062H749.27V90.2227H753.388V101.62H748.599V103.344H749.844V109.857H761.146C758.943 114.646 757.028 119.148 755.495 122.979H743.906V112.347H725.612V87.062H691.42V104.11H685.098V81.2196H681.363V38.2153L660.196 33.618L653.492 35.6293H635.869V64.7458H635.677L633.57 60.5316C633.57 60.5316 633.857 38.1196 633.57 38.1196C633.283 38.1196 634.911 36.7787 634.911 36.7787V34.7673H633.57V25.5727L634.528 24.6149V22.3162H633.474V12.2596L631.942 0L630.505 12.2596V22.2204H629.452V24.5191L630.409 25.4769V34.6716H629.068V36.6829C629.068 36.6829 630.697 38.0238 630.409 38.0238C630.122 38.0238 630.409 60.4358 630.409 60.4358L628.302 64.65H627.344V60.0527H619.491C619.586 55.3596 619.682 43.0042 619.491 43.0042C619.203 43.0042 620.64 41.8549 620.64 41.8549V40.2267H619.491V32.5644L620.353 31.7024V29.7869H619.395V21.3584L618.15 11.0144L616.905 21.3584V29.7869H615.947V31.7024L616.809 32.5644V40.3224H615.851V41.9507C615.851 41.9507 617.288 43.1 617 43.1C616.809 43.1 616.905 55.4553 617 60.1484H616.522C616.617 59.8611 616.617 59.5738 616.617 59.2864C616.617 56.9878 614.702 55.0722 612.403 55.0722C610.966 55.0722 609.721 55.7427 608.955 56.7962V48.8467C608.764 48.1762 608.093 47.6016 607.135 47.6016C606.178 47.6016 605.507 48.1762 605.316 48.8467H605.22V52.1031C603.879 50.4749 601.868 49.0382 599.473 47.9847C599.952 46.9311 600.239 45.686 600.239 44.4409C600.239 38.8858 594.876 34.48 588.267 34.48C581.658 34.48 576.295 38.9816 576.295 44.4409C576.295 45.5902 576.486 46.6438 576.965 47.6973C575.241 48.3678 573.805 49.2298 572.56 50.2833V48.5593C572.368 47.8889 571.698 47.3142 570.74 47.3142C569.878 47.3142 569.112 47.8889 568.92 48.5593V55.3596C568.728 56.03 568.633 56.7962 568.633 57.4667C568.633 58.2329 568.728 58.9033 568.92 59.6696V60.2442H568.345C568.441 59.8611 568.537 59.3822 568.537 58.9991C568.537 56.7004 566.621 54.7849 564.323 54.7849C562.024 54.7849 560.108 56.7004 560.108 58.9991C560.108 59.478 560.204 59.8611 560.3 60.2442H559.151C559.246 56.4131 559.342 42.4296 559.151 42.4296C558.863 42.4296 560.3 41.2802 560.3 41.2802V39.652H559.151V31.894L560.013 31.032V29.1164H559.151V20.688L557.906 10.344L556.66 20.688V29.1164H555.703V31.032L556.565 31.894V39.652H555.415V41.1844C555.415 41.1844 556.852 42.3338 556.565 42.3338C556.373 42.3338 556.469 56.3173 556.565 60.1484H552.734V64.7458H550.531V61.5851H548.519L548.232 61.0104C548.232 61.0104 548.519 38.5984 548.232 38.5984C547.945 38.5984 549.573 37.2576 549.573 37.2576V35.2462H548.232V26.0516L549.19 25.0938V22.7951H548.136V12.7384L546.7 0.478889L545.263 12.7384V22.6993H544.209V24.998L545.167 25.9558V35.1504H543.826V37.1618C543.826 37.1618 545.454 38.5027 545.167 38.5027C544.88 38.5027 545.167 60.9147 545.167 60.9147L544.88 61.4893H536.739V55.7427C536.739 55.7427 532.046 55.7427 531.662 55.7427C531.279 55.7427 531.662 61.2978 531.662 61.2978H526.778V52.1031H512.315V45.4944H493.064V22.9867H475.824V19.1556H456.477V21.1669H443.93V80.5491H435.502V29.308H413.664L417.783 20.1133C417.783 20.1133 364.339 20.3049 363.956 20.1133C363.572 19.9218 372.097 29.8827 372.097 29.8827H368.744V85.7211L352.941 80.8364V74.4193C352.941 74.4193 305.244 74.4193 300.359 74.4193C295.474 74.4193 300.359 31.4151 300.359 31.4151H291.069V26.1473L284.556 20.5922L277.085 25.86V33.7138H269.04L267.699 35.0547H259.845V53.3482H256.589V46.3564H252.758V41.4718C252.758 41.4718 240.785 41.4718 240.115 41.4718C239.444 41.4718 240.115 47.2184 240.115 47.2184H234.177V52.6778H228.526C228.526 52.6778 228.526 58.4244 228.526 59.3822C228.526 60.34 213.68 59.3822 213.68 59.3822V86.9662H204.677V77.58H180.733C180.733 77.58 180.733 63.2133 180.733 52.1031C180.733 40.8971 144.624 31.6067 134.759 29.1164C124.99 26.6262 120.776 27.0093 120.776 27.0093V90.8931H118.956V96.8313C118.956 96.8313 91.8509 96.7356 91.6593 96.8313C91.4678 96.9271 91.6593 99.8004 91.6593 99.8004H96.7356V107.271H93.3833V121.063H80.0702V95.7778H83.0393V93.7664H79.7829V82.9436H52.582V79.304H49.5171V66.8529C49.3256 66.9487 44.4409 71.546 44.4409 71.546H38.5984C38.5984 71.546 33.7138 66.9487 33.5222 66.8529V79.304H30.4573V82.9436H3.25644V93.7664H0V95.7778H2.96911V134.951H20.7838V101.429H25.9558V134.951H30.3616V101.429H52.582V134.951H56.9878V101.429H62.1598V134.951H773.789V123.553H780.11V134.855H783.079V123.553H796.871V134.855H799.074V123.553H811.525V134.855H813.728V123.553H827.52V134.855H830.489V123.553H836.81V134.855H859.606C859.606 134.855 855.87 123.553 849.549 109.857H860.851V103.344H862.096V101.62H857.115ZM805.3 65.0331C805.3 65.0331 818.517 63.3091 831.447 86.9662H831.351C828.095 81.6027 818.134 66.7571 805.3 66.7571C792.37 66.7571 782.409 81.5069 779.248 86.9662H779.152C792.082 63.4049 805.3 65.0331 805.3 65.0331ZM805.3 70.684C796.296 70.684 788.155 80.5491 783.845 87.062H783.462C791.986 69.822 805.3 69.3431 805.3 69.3431C805.3 69.3431 818.517 69.822 827.137 87.062H826.754C822.444 80.5491 814.303 70.684 805.3 70.684ZM822.923 86.9662H787.581C794.668 74.5151 805.204 72.8869 805.204 72.8869C805.204 72.8869 815.835 74.5151 822.923 86.9662ZM836.81 119.818H833.841V115.604H816.027V119.818H815.26V115.604H797.446V119.818H795.818V115.604H778.003V119.818H773.884V109.857H793.806V112.06H815.548V109.857H836.906V119.818H836.81Z" fill="#00b53f"/>
</svg>
